<svg width="81" height="39" viewBox="0 0 81 39" fill="none" xmlns="http://www.w3.org/2000/svg">
<path d="M0 19.9999H5.46C10.836 19.9999 16.464 17.3679 16.464 10.1159C16.464 3.0319 10.78 0.399902 5.712 0.399902H0V19.9999ZM4.004 3.7879H5.236C9.632 3.7879 12.18 6.0559 12.18 10.3679C12.18 14.9879 9.044 16.6119 4.452 16.6119H4.004V3.7879Z" fill="black"/>
<path d="M35.7516 0.399902H31.7476V11.2919C31.7476 15.0439 30.2356 16.8359 27.8556 16.8359C25.4756 16.8359 23.9636 15.0439 23.9636 11.2919V0.399902H19.9596V10.7599C19.9596 16.9199 22.3116 20.3359 27.7996 20.3359C33.3996 20.3359 35.7516 16.9199 35.7516 10.7599V0.399902Z" fill="black"/>
<path d="M40.0586 0.399902V19.9999H44.9866C46.7506 19.9999 48.6546 19.8319 50.1386 19.2159C52.2666 18.3199 53.6386 16.4999 53.6386 14.1759C53.6386 12.1039 52.3506 10.3959 50.3626 9.7239C51.9866 8.9959 52.8266 7.5679 52.8266 5.9439C52.8266 4.1799 52.0426 2.6399 50.5306 1.6599C49.0746 0.707903 47.0866 0.399902 45.2106 0.399902H40.0586ZM44.0626 11.6279H46.3026C48.2906 11.6279 49.3546 12.6359 49.3546 14.2599C49.3546 15.2679 48.9346 15.8559 48.2346 16.2199C47.3946 16.6399 46.1626 16.6399 44.9866 16.6399H44.0626V11.6279ZM44.0626 3.7599H44.8466C46.1066 3.7599 47.2266 3.7599 47.9826 4.2639C48.4586 4.6279 48.8226 5.1879 48.8226 6.0839C48.8226 7.6239 47.4786 8.3799 45.1826 8.3799H44.0626V3.7599Z" fill="black"/>
<path d="M73.9751 19.9999L66.6111 0.399902H63.3631L55.3551 19.9999H59.8071L61.1231 16.3599H68.0951L69.3551 19.9999H73.9751ZM64.6791 6.5039H64.7071L66.9751 13.0839H62.2991L64.6791 6.5039Z" fill="black"/>
<path d="M80.6485 19.9999V0.399902H76.6445V19.9999H80.6485Z" fill="black"/>
<path d="M9.36789 28.3039V26.7999H2.08789V28.3039H4.87189V37.9999H6.58389V28.3039H9.36789Z" fill="black"/>
<path d="M15.812 37.9999V26.7999H14.1V37.9999H15.812Z" fill="black"/>
<path d="M23.005 32.3999C23.005 29.9359 24.765 28.1279 27.197 28.1279C28.029 28.1279 28.813 28.4159 29.485 28.8479L30.301 27.5359C29.373 26.9439 28.333 26.6079 27.197 26.6079C23.885 26.6079 21.181 29.1039 21.181 32.3999C21.181 35.9039 23.821 38.1919 27.165 38.1919C28.413 38.1919 29.581 37.8079 30.573 37.1039L29.645 35.8399C28.893 36.3839 28.061 36.6719 27.197 36.6719C24.701 36.6719 23.005 35.0079 23.005 32.3999Z" fill="black"/>
<path d="M43.7943 26.7999H41.6983L37.2183 32.2399V26.7999H35.5063V37.9999H37.2183V34.6079L38.8823 32.6239L41.9863 37.9999H43.9863L40.0503 31.2479L43.7943 26.7999Z" fill="black"/>
<path d="M55.3539 37.9999V36.4959H50.2339V32.9759H55.3539V31.4719H50.2339V28.3039H55.3539V26.7999H48.5219V37.9999H55.3539Z" fill="black"/>
<path d="M66.8991 28.3039V26.7999H59.6191V28.3039H62.4031V37.9999H64.1151V28.3039H66.8991Z" fill="black"/>
<path d="M77.379 29.0399L78.419 27.8079C77.379 27.0079 76.259 26.6079 74.883 26.6079C73.059 26.6079 71.459 27.5999 71.459 29.7119C71.459 31.5519 73.059 32.3039 74.579 32.8479C75.827 33.2799 76.995 33.6959 76.995 34.8639C76.995 36.1439 75.923 36.6719 74.835 36.6719C73.699 36.6719 72.915 36.3359 71.907 35.3279L70.707 36.4639C71.907 37.6479 73.155 38.1919 74.819 38.1919C76.579 38.1919 78.819 37.1999 78.819 34.7039C78.819 32.5119 76.947 31.7919 75.363 31.2479C74.211 30.8479 73.171 30.5119 73.171 29.5679C73.171 28.6399 73.955 28.1279 75.043 28.1279C75.923 28.1279 76.835 28.5439 77.379 29.0399Z" fill="black"/>
</svg>
